<svg width="280" height="48" viewBox="0 0 280 48" fill="none" xmlns="http://www.w3.org/2000/svg">
  <!-- Canopy Intelligence Full Logo - Font Awesome Network Icon + Wordmark -->

  <!-- Gradient Definitions -->
  <defs>
    <linearGradient id="logo-gradient-light" x1="0%" y1="0%" x2="100%" y2="100%">
      <stop offset="0%" style="stop-color:#0f766e;stop-opacity:1" />
      <stop offset="100%" style="stop-color:#0d9488;stop-opacity:1" />
    </linearGradient>
  </defs>

  <!-- Icon (0-48px) - Font Awesome Network Wired (scaled and rotated 45°) -->
  <g transform="scale(0.094, 0.094)">
    <path fill="url(#logo-gradient-light)" transform="rotate(45 224 256)" d="M248 106.6c18.9-9 32-28.3 32-50.6c0-30.9-25.1-56-56-56s-56 25.1-56 56c0 22.3 13.1 41.6 32 50.6l0 98.8c-2.8 1.3-5.5 2.9-8 4.7l-80.1-45.8c1.6-20.8-8.6-41.6-27.9-52.8C57.2 96 23 105.2 7.5 132S1.2 193 28 208.5c1.3 .8 2.6 1.5 4 2.1l0 90.8c-1.3 .6-2.7 1.3-4 2.1C1.2 319-8 353.2 7.5 380S57.2 416 84 400.5c19.3-11.1 29.4-32 27.8-52.8l50.5-28.9c-11.5-11.2-19.9-25.6-23.8-41.7L88 306.1c-2.6-1.8-5.2-3.3-8-4.7l0-90.8c2.8-1.3 5.5-2.9 8-4.7l80.1 45.8c-.1 1.4-.2 2.8-.2 4.3c0 22.3 13.1 41.6 32 50.6l0 98.8c-18.9 9-32 28.3-32 50.6c0 30.9 25.1 56 56 56s56-25.1 56-56c0-22.3-13.1-41.6-32-50.6l0-98.8c2.8-1.3 5.5-2.9 8-4.7l80.1 45.8c-1.6 20.8 8.6 41.6 27.8 52.8c26.8 15.5 61 6.3 76.5-20.5s6.3-61-20.5-76.5c-1.3-.8-2.7-1.5-4-2.1l0-90.8c1.4-.6 2.7-1.3 4-2.1c26.8-15.5 36-49.7 20.5-76.5S390.8 96 364 111.5c-19.3 11.1-29.4 32-27.8 52.8l-50.6 28.9c11.5 11.2 19.9 25.6 23.8 41.7L360 205.9c2.6 1.8 5.2 3.3 8 4.7l0 90.8c-2.8 1.3-5.5 2.9-8 4.6l-80.1-45.8c.1-1.4 .2-2.8 .2-4.3c0-22.3-13.1-41.6-32-50.6l0-98.8z"/>
  </g>

  <!-- Wordmark (56-280px) -->
  <g fill="#0a0a0a" font-family="Inter, sans-serif" font-weight="700">
    <!-- "Canopy" -->
    <text x="62" y="30" font-size="20" letter-spacing="-0.02em">Canopy</text>

    <!-- "Intelligence" with lighter weight -->
    <text x="144" y="30" font-size="20" font-weight="500" letter-spacing="-0.01em" opacity="0.8">Intelligence</text>
  </g>
</svg>
